<svg id="visual" viewBox="0 0 1800 600" width="1800" height="600" xmlns="http://www.w3.org/2000/svg" xmlns:xlink="http://www.w3.org/1999/xlink" version="1.1"><path d="M0 400L60 408.7C120 417.3 240 434.7 360 421.5C480 408.3 600 364.7 720 367.2C840 369.7 960 418.3 1080 430C1200 441.7 1320 416.3 1440 401.8C1560 387.3 1680 383.7 1740 381.8L1800 380L1800 0L1740 0C1680 0 1560 0 1440 0C1320 0 1200 0 1080 0C960 0 840 0 720 0C600 0 480 0 360 0C240 0 120 0 60 0L0 0Z" fill="#fcce3d" stroke-linecap="round" stroke-linejoin="miter"></path></svg>